# xmcd
#
# Track frame offsets:
#	187
#	10912
#	27525
#	38775
#	46575
#	73912
#	79762
#	96787
#	107062
#	120412
#	128925
#	137812
#
# Disc length: 2051 seconds
#
# Revision: 1
# Processed by: cddbd v1.4PL0 Copyright (c) Steve Scherf et al.
# Submitted via: EasyCDDAExtractor 6.0.0.1
#
DISCID=9d08010c
DTITLE=Mississippi John Hurt - Avalon Blues 1963
DYEAR=1991
DGENRE=Blues
TTITLE0=Avalon Blues
TTITLE1=Richland Woman Blues
TTITLE2=Spike Driver Blues
TTITLE3=Salty Dog
TTITLE4=Cow Hooking Blues
TTITLE5=Spanish Fandango
TTITLE6=Casey Jones
TTITLE7=Louis Collins
TTITLE8=Candy Man Blues
TTITLE9=My Creole Belle
TTITLE10=Liza Jane
TTITLE11=Joe Turner Blues
EXTD=
EXTT0=
EXTT1=
EXTT2=
EXTT3=
EXTT4=
EXTT5=
EXTT6=
EXTT7=
EXTT8=
EXTT9=
EXTT10=
EXTT11=
PLAYORDER=
